<?xml version="1.0" encoding="UTF-8"?>
<svg id="Calque_1" xmlns="http://www.w3.org/2000/svg" version="1.1" viewBox="0 0 320 512">
  <!-- Generator: Adobe Illustrator 29.2.0, SVG Export Plug-In . SVG Version: 2.1.0 Build 108)  -->
  <defs>
    <style>
      .st0 {
        fill: lime;
      }
    </style>
  </defs>
  <path class="st0" d="M48,64C21.5,64,0,85.5,0,112v288c0,26.5,21.5,48,48,48h32c26.5,0,48-21.5,48-48V112c0-26.5-21.5-48-48-48h-32ZM240,64c-26.5,0-48,21.5-48,48v288c0,26.5,21.5,48,48,48h32c26.5,0,48-21.5,48-48V112c0-26.5-21.5-48-48-48h-32Z"/>
</svg>